/* XPM */
static char * ggcov32_xpm[] = {
"32 32 298 2",
"  	c None",
". 	c #FEFEFF",
"+ 	c #FCFCFF",
"@ 	c #F2F2FF",
"# 	c #EDEDFF",
"$ 	c #E7E7FF",
"% 	c #E0E0FF",
"& 	c #DADAFC",
"* 	c #FFFFFF",
"= 	c #F6F6FF",
"- 	c #ECECFF",
"; 	c #E3E3FF",
"> 	c #DEDEFF",
", 	c #D8D8FD",
"' 	c #D5D5FB",
") 	c #D2D2F8",
"! 	c #D0D0F6",
"~ 	c #CCCCF1",
"{ 	c #CFCFF4",
"] 	c #C8C8EC",
"^ 	c #F5F5FF",
"/ 	c #E8E8FF",
"( 	c #DFDFFF",
"_ 	c #DADAFE",
": 	c #D4D4FB",
"< 	c #D1D1F8",
"[ 	c #CECEF4",
"} 	c #CBCBF0",
"| 	c #C8C8ED",
"1 	c #C7C7EB",
"2 	c #C3C3E7",
"3 	c #C2C2E6",
"4 	c #BFBFE2",
"5 	c #BBBBDE",
"6 	c #B9B9DC",
"7 	c #FAFAFF",
"8 	c #EBEBFF",
"9 	c #D4D4FA",
"0 	c #D0D0F7",
"a 	c #CDCDF2",
"b 	c #C9C9EE",
"c 	c #C6C6EC",
"d 	c #C4C4E8",
"e 	c #C0C0E4",
"f 	c #BEBEE1",
"g 	c #BCBCDF",
"h 	c #BABADD",
"i 	c #B7B7D9",
"j 	c #B2B2D3",
"k 	c #AAAAC9",
"l 	c #F8F8FF",
"m 	c #CECEF2",
"n 	c #666679",
"o 	c #4C4C5A",
"p 	c #41414C",
"q 	c #646477",
"r 	c #606072",
"s 	c #ABABCB",
"t 	c #C0C0E3",
"u 	c #BDBDE0",
"v 	c #BCBCDE",
"w 	c #B9B9DB",
"x 	c #B5B5D6",
"y 	c #B0B0D0",
"z 	c #ADADCD",
"A 	c #9C9CB8",
"B 	c #DCDCFF",
"C 	c #BEBEE0",
"D 	c #7C7C92",
"E 	c #83839A",
"F 	c #A8A8C7",
"G 	c #9E9EBB",
"H 	c #6D6D82",
"I 	c #363641",
"J 	c #3E3E48",
"K 	c #9D9DB9",
"L 	c #BABADC",
"M 	c #B8B8DA",
"N 	c #B5B5D7",
"O 	c #B4B4D5",
"P 	c #AEAECF",
"Q 	c #A4A4C3",
"R 	c #9696B2",
"S 	c #E6E6FF",
"T 	c #DDDDFF",
"U 	c #B0B0D1",
"V 	c #4F4F5E",
"W 	c #C5C5EA",
"X 	c #C8C8EE",
"Y 	c #C3C3E6",
"Z 	c #C1C1E4",
"` 	c #616173",
" .	c #535364",
"..	c #B6B6D7",
"+.	c #B3B3D5",
"@.	c #B2B2D2",
"#.	c #A9A9C8",
"$.	c #9D9DBA",
"%.	c #8888A1",
"&.	c #E9E9FF",
"*.	c #D3D3FA",
"=.	c #44444E",
"-.	c #BEBEE2",
";.	c #BDBDDF",
">.	c #A6A6C5",
",.	c #42424E",
"'.	c #86869F",
").	c #ADADCE",
"!.	c #ABABCA",
"~.	c #A4A4C2",
"{.	c #9F9FBC",
"].	c #9393AE",
"^.	c #78788E",
"/.	c #F0F0FF",
"(.	c #D6D6FC",
"_.	c #202026",
":.	c #C6C6EB",
"<.	c #BBBBDD",
"[.	c #4B4B58",
"}.	c #3D3D49",
"|.	c #ACACCC",
"1.	c #A6A6C4",
"2.	c #A3A3C1",
"3.	c #7C7C93",
"4.	c #E4E4FF",
"5.	c #D8D8FE",
"6.	c #D1D1F7",
"7.	c #32323C",
"8.	c #AFAFCE",
"9.	c #5E5E6E",
"0.	c #565666",
"a.	c #B1B1D2",
"b.	c #AAAACA",
"c.	c #A5A5C4",
"d.	c #A2A2C0",
"e.	c #8888A0",
"f.	c #646476",
"g.	c #EEEEFF",
"h.	c #DCDCFE",
"i.	c #3C3C45",
"j.	c #BABADB",
"k.	c #B7B7D8",
"l.	c #50505E",
"m.	c #6F6F84",
"n.	c #AFAFCF",
"o.	c #A1A1BE",
"p.	c #9C9CB9",
"q.	c #8A8AA4",
"r.	c #626273",
"s.	c #FBFBFF",
"t.	c #E5E5FF",
"u.	c #CFCFF5",
"v.	c #CACAF0",
"w.	c #4E4E5C",
"x.	c #2C2C34",
"y.	c #A5A5C3",
"z.	c #9E9EBC",
"A.	c #9A9AB6",
"B.	c #9595B1",
"C.	c #8C8CA6",
"D.	c #727287",
"E.	c #CBCBF1",
"F.	c #C7C7EC",
"G.	c #6E6E82",
"H.	c #76768B",
"I.	c #B6B6D8",
"J.	c #B4B4D6",
"K.	c #525260",
"L.	c #707084",
"M.	c #AEAECE",
"N.	c #A8A8C6",
"O.	c #A0A0BE",
"P.	c #9C9CBA",
"Q.	c #9898B4",
"R.	c #9494AF",
"S.	c #76768C",
"T.	c #3E3E4A",
"U.	c #EFEFFF",
"V.	c #C9C9ED",
"W.	c #C5C5E9",
"X.	c #4E4E5D",
"Y.	c #4A4A58",
"Z.	c #565665",
"`.	c #8888A2",
" +	c #7F7F96",
".+	c #86869E",
"++	c #494956",
"@+	c #535362",
"#+	c #82829A",
"$+	c #A7A7C6",
"%+	c #A1A1BF",
"&+	c #9292AD",
"*+	c #8A8AA3",
"=+	c #77778D",
"-+	c #7E7E96",
";+	c #41414D",
">+	c #40404B",
",+	c #2A2A34",
"'+	c #515160",
")+	c #7E7E93",
"!+	c #303039",
"~+	c #9696B1",
"{+	c #9191AC",
"]+	c #8787A0",
"^+	c #525262",
"/+	c #E1E1FF",
"(+	c #B3B3D4",
"_+	c #3C3C47",
":+	c #454552",
"<+	c #9797B3",
"[+	c #9E9EBA",
"}+	c #9B9BB8",
"|+	c #8E8EA8",
"1+	c #84849D",
"2+	c #747489",
"3+	c #B2B2D4",
"4+	c #40404C",
"5+	c #6F6F83",
"6+	c #303038",
"7+	c #9999B6",
"8+	c #9595B0",
"9+	c #9090AA",
"0+	c #818199",
"a+	c #6D6D80",
"b+	c #434350",
"c+	c #D7D7FD",
"d+	c #CCCCF2",
"e+	c #BFBFE3",
"f+	c #363640",
"g+	c #3C3C46",
"h+	c #4F4F5D",
"i+	c #9494AE",
"j+	c #7E7E94",
"k+	c #656578",
"l+	c #C1C1E5",
"m+	c #ACACCB",
"n+	c #34343D",
"o+	c #4D4D5B",
"p+	c #32323B",
"q+	c #9494B0",
"r+	c #83839C",
"s+	c #575767",
"t+	c #AFAFD0",
"u+	c #393943",
"v+	c #383842",
"w+	c #8C8CA7",
"x+	c #8686A0",
"y+	c #464653",
"z+	c #A6A6C6",
"A+	c #474753",
"B+	c #32323A",
"C+	c #8B8BA4",
"D+	c #8E8EA9",
"E+	c #626274",
"F+	c #373741",
"G+	c #3E3E49",
"H+	c #8989A2",
"I+	c #545463",
"J+	c #9F9FBD",
"K+	c #393944",
"L+	c #282830",
"M+	c #737388",
"N+	c #5F5F70",
"O+	c #9999B5",
"P+	c #464654",
"Q+	c #40404A",
"R+	c #4C4C59",
"S+	c #2E2E36",
"T+	c #636375",
"U+	c #474754",
"V+	c #A0A0BD",
"W+	c #9B9BB7",
"X+	c #9292AC",
"Y+	c #8D8DA7",
"Z+	c #68687B",
"`+	c #3A3A45",
" @	c #5E5E70",
".@	c #8F8FAA",
"+@	c #7E7E95",
"@@	c #43434F",
"#@	c #9A9AB7",
"$@	c #8989A3",
"%@	c #85859E",
"&@	c #7B7B92",
"*@	c #9090AC",
"=@	c #8F8FA9",
"-@	c #9090AB",
";@	c #85859D",
">@	c #7A7A91",
",@	c #74748A",
"'@	c #6A6A7D",
")@	c #5C5C6E",
"!@	c #828299",
"~@	c #84849C",
"{@	c #7F7F97",
"]@	c #707085",
"^@	c #5D5D6F",
"/@	c #707086",
"                                                                ",
"                      . + + @ # $ % % &                         ",
"                  * . = - ; > , ' ) ! ~ { ]                     ",
"              * . ^ / ( _ : < [ } | 1 2 3 4 5 6                 ",
"            * 7 8 % _ 9 0 a b c d 2 e f g h i j k               ",
"          * l / > m n o p q r s 3 t u v w i x y z A             ",
"        * l $ B C D E F G H I J K v L M N O j P s Q R           ",
"      * l S T U V W X W Y Z y `  .M i ..+.@.y z #.Q $.%.        ",
"      + &.> *.=.y | W 2 Z -.;.>.,.'...O @.y ).!.F ~.{.].^.      ",
"    * /.> (.M _.:.W Y e f v <.i [.}.O @.y ).|.#.1.2.$.R 3.      ",
"    7 4.5.6.O 7.W 2 e u v w M 8.9.0.a.y ).|.b.F c.d.$.R e.f.    ",
"  * g.h.*.[ U i.j.e f v L M k.U l.m.y n.|.!.F 1.~.o.p.R q.r.    ",
"  s.t.5.u.v.M w.m.C v L M i O s x.y.P |.b.#.>.~.d.z.A.B.C.D.    ",
"  ^ T ) E.F.2 G.r H.L M I.J.j K.L.M.|.!.#.N.1.d.O.P.Q.R.q.S.T.  ",
"  U.5.u.V.W.3 -.X.Y.Z.`. +.+++@+#+A s #.$+>.2.%+{.A R &+*+=+l.  ",
"  S 9 ~ :.2 4 v x -+;+>+,+'+R.)+O.!+~+N.1.Q %+{.$.A.R.{+]+S.^+  ",
"  /+0 | d Z u h w I.J.(+a.y M.D._+T.:+<+~.~.O.[+}+Q.&+|+1+2+w.  ",
"  h.a F.3 f v w k.J.3+j y P |.~.4+<+5+6+d.O.$.A 7+8+9+C.0+a+b+  ",
"  c+d+d e+g L i ..O @.y M.|.!.#.-+l.f+g+h+$.P.A.<+i+|+%.j+k+    ",
"  < V.l+u L M ..(+@.y n.|.m+#.F >.o n+o+p+=+A.<+q+{+*+r+S.s+    ",
"    F.Z 5 w N +.@.t+P |.b.#.$+>.~.R.u+v+p+7.%.B.&+w+x+ +L.y+    ",
"    2 u w I.J.@.y ).|.b.k $+z+~.2.%+.+A+T.B+B+C+D+`.#+^.E+      ",
"      v i x @.y z |.b.#.z+Q ~.d.o.z.p.l.y+@+F+G+H+.+3.m.I+      ",
"      M (+@.n.P m+b.F >.c.2.%+J+G p.A.Q.K+v+[.L+[.-+M+N+        ",
"        n.n.z !.$+$+1.~.d.%+{.[+p.O+<+8+^.P+Q+R+S+T+n U+        ",
"          F F 1.>.~.d.%+V+[+p.W+Q.~+R.X+Y+'+:+Z+`+ @'+          ",
"            d.o.%+V+J+$.}+A.O+~+q+&+.@C.]++@;+@@` '+            ",
"              A.A #@A.7+<+B.i+&+.@Y+$@%@0+&@M+f.h+              ",
"                *@=@X+-@{+=@Y+C.`.;@0+>@,@'@)@                  ",
"                    .+!@~@#+#+{@D =+]@n ^@                      ",
"                          /@/@G.'@E+                            ",
"                                                                "};
