/* XPM */
static char * icon_xpm[] = {
"28 28 33 1",
" 	c None",
".	c #1E1E26",
"+	c #464653",
"@	c #525262",
"#	c #626273",
"$	c #6E6E82",
"%	c #76768B",
"&	c #7A7A8E",
"*	c #86869E",
"=	c #8A8AA6",
"-	c #9A9AB6",
";	c #A2A2C0",
">	c #2A2A32",
",	c #32323A",
"'	c #A6A6C5",
")	c #36363E",
"!	c #AAAAC9",
"~	c #3A3A44",
"{	c #565662",
"]	c #4A4A58",
"^	c #6A6A7C",
"/	c #3E3E4A",
"(	c #9292AA",
"_	c #5A5A66",
":	c #AEAECE",
"<	c #42424E",
"[	c #4E4E5B",
"}	c #82829A",
"|	c #5A5A6A",
"1	c #727286",
"2	c #5E5E71",
"3	c #2E2E36",
"4	c #9696B2",
"            ::::            ",
"        :::::::::::         ",
"       ::::::::::::::       ",
"     ::::::::::::::::::     ",
"    ::::1~,@[-::::::::::    ",
"   ::::$&;'1<<-:::::::::    ",
"   :::]4:::::##::::::::::   ",
"  :::4,::::::-.-::::::::::  ",
" ::::%#::::::;3=::::::::::  ",
" ::::%^::::::;,'::::::::::: ",
" ::::*~':::::!>:::::::::::: ",
" :::::[2-::::/(:::::::::::: ",
"::::::-/[#^%<%1:::::::::::: ",
"::::::::22]^'%}<::::::::::: ",
":::::::::::::#)*]:::::::::: ",
"::::::::::::::[^]^::::::::: ",
" :::::::::::::*</>*:::::::: ",
" ::::::::::::::_)+/!::::::: ",
" :::::::::::::::@+<+::::::  ",
"  ::::::::::::::-+[<|:::::  ",
"  :::::::::::::::2+#,1::::  ",
"   :::::::::::::::@]1+:::   ",
"   :::::::::::::::-<{%::    ",
"    :::::::::::::::;!::     ",
"      ::::::::::::::::      ",
"       ::::::::::::::       ",
"         :::::::::          ",
"                            "};
