/* XPM */
static char * desktop_icon_xpm[] = {
"56 56 188 2",
"  	c None",
". 	c #AEAECE",
"+ 	c #9F9FBC",
"@ 	c #9090AA",
"# 	c #82829A",
"$ 	c #747489",
"% 	c #727286",
"& 	c #707084",
"* 	c #78788E",
"= 	c #808098",
"- 	c #7F7F96",
"; 	c #7E7E94",
"> 	c #9191AB",
", 	c #A4A4C2",
"' 	c #A9A9C8",
") 	c #565665",
"! 	c #3A3A44",
"~ 	c #36363F",
"{ 	c #32323A",
"] 	c #42424E",
"^ 	c #525262",
"/ 	c #50505E",
"( 	c #4E4E5B",
"_ 	c #747488",
": 	c #9A9AB6",
"< 	c #9E9EBB",
"[ 	c #8E8EA8",
"} 	c #828299",
"| 	c #76768A",
"1 	c #6E6E82",
"2 	c #6D6D81",
"3 	c #6C6C80",
"4 	c #67677A",
"5 	c #626274",
"6 	c #555564",
"7 	c #484854",
"8 	c #5B5B6B",
"9 	c #8989A2",
"0 	c #7A7A8E",
"a 	c #8E8EA7",
"b 	c #A2A2C0",
"c 	c #A6A6C5",
"d 	c #8C8CA6",
"e 	c #5A5A6A",
"f 	c #9595B0",
"g 	c #7C7C93",
"h 	c #8B8BA4",
"i 	c #9494AE",
"j 	c #9E9EBA",
"k 	c #A8A8C7",
"l 	c #AAAACA",
"m 	c #9D9DBA",
"n 	c #84849C",
"o 	c #656577",
"p 	c #525260",
"q 	c #68687A",
"r 	c #9696B1",
"s 	c #4A4A58",
"t 	c #707085",
"u 	c #9696B2",
"v 	c #8888A0",
"w 	c #626273",
"x 	c #3E3E49",
"y 	c #5F5F70",
"z 	c #40404C",
"A 	c #727287",
"B 	c #646476",
"C 	c #5C5C6E",
"D 	c #1E1E26",
"E 	c #86869E",
"F 	c #4A4A56",
"G 	c #7C7C92",
"H 	c #A6A6C4",
"I 	c #26262E",
"J 	c #9292AE",
"K 	c #A0A0BE",
"L 	c #9292AC",
"M 	c #76768B",
"N 	c #6C6C7F",
"O 	c #68687B",
"P 	c #2E2E36",
"Q 	c #8A8AA6",
"R 	c #9C9CBA",
"S 	c #6E6E81",
"T 	c #666678",
"U 	c #8A8AA3",
"V 	c #69697C",
"W 	c #303038",
"X 	c #646477",
"Y 	c #9898B6",
"Z 	c #A3A3C2",
"` 	c #6A6A7C",
" .	c #8C8CA5",
"..	c #6A6A7D",
"+.	c #7E7E95",
"@.	c #ACACCC",
"#.	c #AAAAC9",
"$.	c #606071",
"%.	c #6A6A7E",
"&.	c #2A2A32",
"*.	c #6F6F83",
"=.	c #444450",
"-.	c #636375",
";.	c #82829B",
">.	c #9393AE",
",.	c #9191AC",
"'.	c #74748A",
").	c #5E5E6E",
"!.	c #565666",
"~.	c #5E5E71",
"{.	c #7C7C94",
"].	c #76768C",
"^.	c #3E3E4A",
"/.	c #9292AA",
"(.	c #A0A0BC",
"_.	c #616173",
":.	c #4E4E5E",
"<.	c #8F8FA9",
"[.	c #85859D",
"}.	c #828298",
"|.	c #9898B3",
"1.	c #464652",
"2.	c #585867",
"3.	c #5C5C6C",
"4.	c #8D8DA7",
"5.	c #666679",
"6.	c #5B5B6C",
"7.	c #606072",
"8.	c #5D5D6E",
"9.	c #75758A",
"0.	c #7A7A90",
"a.	c #79798F",
"b.	c #8686A0",
"c.	c #545464",
"d.	c #9A9AB7",
"e.	c #818199",
"f.	c #9B9BB7",
"g.	c #4C4C58",
"h.	c #36363E",
"i.	c #656576",
"j.	c #42424C",
"k.	c #5D5D6D",
"l.	c #78788D",
"m.	c #616172",
"n.	c #6B6B7E",
"o.	c #4D4D5B",
"p.	c #444451",
"q.	c #474754",
"r.	c #4A4A57",
"s.	c #34343E",
"t.	c #585868",
"u.	c #4E4E5A",
"v.	c #44444F",
"w.	c #393943",
"x.	c #383842",
"y.	c #8787A0",
"z.	c #ADADCD",
"A.	c #84849A",
"B.	c #5A5A66",
"C.	c #484852",
"D.	c #3E3E48",
"E.	c #464653",
"F.	c #9999B4",
"G.	c #646475",
"H.	c #454552",
"I.	c #434350",
"J.	c #5C5C6D",
"K.	c #4C4C5A",
"L.	c #9292AD",
"M.	c #5E5E70",
"N.	c #9999B5",
"O.	c #4E4E5C",
"P.	c #7B7B92",
"Q.	c #4C4C59",
"R.	c #545463",
"S.	c #69697D",
"T.	c #515160",
"U.	c #575766",
"V.	c #4E4E5D",
"W.	c #5E5E6F",
"X.	c #646474",
"Y.	c #565662",
"Z.	c #666676",
"`.	c #79798E",
" +	c #808096",
".+	c #8989A1",
"++	c #A0A0BD",
"@+	c #ABABCA",
"                                                . . . . . . . . .                                               ",
"                                                . . . . . . . . .                                               ",
"                                  . . . . . . . . . . . . . . . . . . . . .                                     ",
"                                . . . . . . . . . . . . . . . . . . . . . . .                                   ",
"                              . . . . . . . . . . . . . . . . . . . . . . . . . . .                             ",
"                            . . . . . . . . . . . . . . . . . . . . . . . . . . . . .                           ",
"                      . . . . . . . . . . . . . . . . . . . . . . . . . . . . . . . . . . .                     ",
"                    . . . . . . . . . . . . . . . . . . . . . . . . . . . . . . . . . . . . .                   ",
"                  . . . . . . . + @ # $ % & * = - ; > , ' . . . . . . . . . . . . . . . . . . .                 ",
"                . . . . . . . . @ % ) ! ~ { ] ^ / ( _ : , . . . . . . . . . . . . . . . . . . . .               ",
"              . . . . . . . < [ } | % 1 2 3 4 5 6 7 8 1 9 , ' . . . . . . . . . . . . . . . . . .               ",
"            . . . . . . . . [ 1 _ 0 a b , c d % e ] ] ] 1 : , . . . . . . . . . . . . . . . . . .               ",
"            . . . . . . f g - # h i j k ' l m @ n * o p q ; r . . . . . . . . . . . . . . . . . . .             ",
"            . . . . . . g s t u b . . . . . . . . . v w w w v . . . . . . . . . . . . . . . . . . . .           ",
"          . . . . . k b & x & b k . . . . . . . . . r ; y z A , ' . . . . . . . . . . . . . . . . . . .         ",
"        . . . . . . b u B { & . . . . . . . . . . . , : C D C : , . . . . . . . . . . . . . . . . . . . .       ",
"      . . . . . . . : E q F G . . . . . . . . . . . H < 5 I C J K . . . . . . . . . . . . . . . . . . . .       ",
"    . . . . . . . . L M N w v . . . . . . . . . . . k b O P C Q R . . . . . . . . . . . . . . . . . . . .       ",
"    . . . . . . . . L M S T U . . . . . . . . . . . k b V W X Y Z . . . . . . . . . . . . . . . . . . . . .     ",
"    . . . . . . . . L M & `  .. . . . . . . . . . . k b ..{ 3 c l . . . . . . . . . . . . . . . . . . . . . .   ",
"    . . . . . . . . r ; q p +.l @.. . . . . . . . . #.H ..P 3 l @.. . . . . . . . . . . . . . . . . . . . . .   ",
"    . . . . . . . . : E $.! & c l . . . . . . . . . @.#.%.&.3 . . . . . . . . . . . . . . . . . . . . . . . .   ",
"    . . . . . . . . , : *.=.-.;.>., ' . . . . . . . ,.'.V ).E . . . . . . . . . . . . . . . . . . . . . . . .   ",
"    . . . . . . . . . . ; ( !.~.{.: , . . . . . . . ].^.q /.(.. . . . . . . . . . . . . . . . . . . . . . . .   ",
". . . . . . . . . . . . > _ _.:._._ ; v U  .<.L [.* V e S }.|.. . . . . . . . . . . . . . . . . . . . . . . .   ",
". . . . . . . . . . . . , : 3 ^.1.( 2.w T ` & M 3.] 3.M _ % @ . . . . . . . . . . . . . . . . . . . . . . . .   ",
". . . . . . . . . . . . ' , 4.].5.!.6.7.8.e o & % '.9.M * 0.a.* >.. . . . . . . . . . . . . . . . . . . . . .   ",
". . . . . . . . . . . . . . . . b.~.~.~.c.s e ` v c [ M G # 5 ] * . . . . . . . . . . . . . . . . . . . . . .   ",
". . . . . . . . . . . . . . . . d.b.b.b.e.g n  .f.l h N B 3.$.B & g f . . . . . . . . . . . . . . . . . . . .   ",
". . . . . . . . . . . . . . . . . . . . . . . . . . v w g.h.).E O s g . . . . . . . . . . . . . . . . . . . .   ",
". . . . . . . . . . . . . . . . . . . . . . . . . . f.v i.j.k.l.m.s n. .m . . . . . . . . . . . . . . . . . .   ",
". . . . . . . . . . . . . . . . . . . . . . . . . . . . ; ( 3.` e s e `  .. . . . . . . . . . . . . . . . . .   ",
". . . . . . . . . . . . . . . . . . . . . . . . . . . .  .` $.) o.p.q.r.% : , . . . . . . . . . . . . . . . .   ",
"    . . . . . . . . . . . . . . . . . . . . . . . . . . : E B ] z ^.s.&.t.E : . . . . . . . . . . . . . . . .   ",
"    . . . . . . . . . . . . . . . . . . . . . . . . . . , : _ u.v.! w.x.o.5 y.@.z.. . . . . . . . . . . . . .   ",
"    . . . . . . . . . . . . . . . . . . . . . . . . . . . . A.B.C.h.D.E.] ^.'.#.@.. . . . . . . . . . . . . .   ",
"    . . . . . . . . . . . . . . . . . . . . . . . . . . . . F.A.G.=.H.E.I.z J.* >.. . . . . . . . . . . . .     ",
"    . . . . . . . . . . . . . . . . . . . . . . . . . . . . . . = ^ K.E.=.] =.E.0.. . . . . . . . . . . .       ",
"      . . . . . . . . . . . . . . . . . . . . . . . . . . . . . L.].M.E.q.7 1.=.B n N.. . . . . . . . . .       ",
"        . . . . . . . . . . . . . . . . . . . . . . . . . . . . , : & E.r.( 7 ] O.e n . . . . . . . . . .       ",
"        . . . . . . . . . . . . . . . . . . . . . . . . . . . . ' , P.^ O.r.O.p Q.1.n.@ + . . . . . . . .       ",
"        . . . . . . . . . . . . . . . . . . . . . . . . . . . . . . b.~.^ E.R.w F { p % @ . . . . . . . .       ",
"          . . . . . . . . . . . . . . . . . . . . . . . . . . . . . d.b.S.K.T.!.R.p U.3.[.. . . . . . .         ",
"            . . . . . . . . . . . . . . . . . . . . . . . . . . . . . . = ^ V.s W.% 3.E.0.. . . . . .           ",
"            . . . . . . . . . . . . . . . . . . . . . . . . . . . . . . L.].M.E.6 X.m.W.E . . . . .             ",
"            . . . . . . . . . . . . . . . . . . . . . . . . . . . . . . , : 1 ] g.Y.Z.M L . . . .               ",
"              . . . . . . . . . . . . . . . . . . . . . . . . . . . . . ' , h A `. +.+L ++. . .                 ",
"                . . . . . . . . . . . . . . . . . . . . . . . . . . . . . . k b H #.@.. . . .                   ",
"                  . . . . . . . . . . . . . . . . . . . . . . . . . . . . . @+k #.@.z.. . .                     ",
"                        . . . . . . . . . . . . . . . . . . . . . . . . . . . . . . . . .                       ",
"                          . . . . . . . . . . . . . . . . . . . . . . . . . . . . . . .                         ",
"                            . . . . . . . . . . . . . . . . . . . . . . . . . . . . .                           ",
"                              . . . . . . . . . . . . . . . . . . . . . . . . . . .                             ",
"                                    . . . . . . . . . . . . . . . . . . .                                       ",
"                                      . . . . . . . . . . . . . . . . .                                         ",
"                                                                                                                "};
