/* XPM */
static char * icon_med_xpm[] = {
"63 63 33 1",
" 	c None",
".	c #020202",
"+	c #09090C",
"@	c #4A4A53",
"#	c #5A5A6B",
"$	c #707084",
"%	c #8E8EA7",
"&	c #CBCBED",
"*	c #9696B2",
"=	c #C2C2E6",
"-	c #3A3A46",
";	c #A6A6C5",
">	c #BCBCDC",
",	c #1D1D22",
"'	c #B6B6DA",
")	c #7A7A91",
"!	c #31313B",
"~	c #DDDDF6",
"{	c #565665",
"]	c #83839B",
"^	c #616172",
"/	c #23232A",
"(	c #AAAAC9",
"_	c #6A6A7D",
":	c #D6D6F2",
"<	c #9A9AB6",
"[	c #141417",
"}	c #AEAECE",
"|	c #43434F",
"1	c #525261",
"2	c #A1A1BE",
"3	c #8A8AA4",
"4	c #2A2A32",
"                                                               ",
"                        }}}}}}}}}}}}}}                         ",
"                     }}}}}}}}}}}}}}}}}}}}                      ",
"                  }}}}}}}}}}}}}}}}}}}}}}}}}}                   ",
"                 }}}}}}}}}}}}}}}}}}}}}}}}}}}}}                 ",
"               }}}}}}}}}}}}}}}}}}}}}}}}}}}}}}}}                ",
"             }}}}}}}}}}}}}}}}}}}}}}}}}}}}}}}}}}}}              ",
"            }}}}}}}}}}}}}}}}}}}}}}}}}}}}}}}}}}}}}}             ",
"           }}}}}}}}}}}}}}}}}}}}}}}}}}}}}}}}}}}}}}}}            ",
"          }}}}}}}}}<]])$_)]]<}}}}}}}}}}}}}}}}}}}}}}}           ",
"         }}}}}}}}}%!.....,|.!{}}}}}}}}}}}}}}}}}}}}}}}          ",
"        }}}}}}}}}@,,@$)){[/,-.@}}}}}}}}}}}}}}}}}}}}}}}         ",
"       }}}}}}}}2$<2(}}}}}}24|),|2}}}}}}}}}}}}}}}}}}}}}}        ",
"      }}}}}}}};-4*}}}}}}}}}()-$/)}}}}}}}}}}}}}}}}}}}}}}}       ",
"      }}}}}}}(|,3}}}}}}}}}}}}]-_!}}}}}}}}}}}}}}}}}}}}}}}}      ",
"     }}}}}}}}][_}}}}}}}}}}}}}})-!)}}}}}}}}}}}}}}}}}}}}}}}      ",
"     }}}}}}}(@.*}}}}}}}}}}}}}}*/_4}}}}}}}}}}}}}}}}}}}}}}}}     ",
"    }}}}}}}}3[.(}}}}}}}}}}}}}}}{,+$}}}}}}}}}}}}}}}}}}}}}}}     ",
"   }}}}}}}}}]-,}}}}}}}}}}}}}}}(%,+_}}}}}}}}}}}}}}}}}}}}}}}}    ",
"   }}}}}}}}}]-,}}}}}}}}}}}}}}}2%/,3}}}}}}}}}}}}}}}}}}}}}}}}    ",
"   }}}}}}}}}]-,}}}}}}}}}}}}}}}2%4,%}}}}}}}}}}}}}}}}}}}}}}}}}   ",
"  }}}}}}}}}}]@/}}}}}}}}}}}}}}};%//2}}}}}}}}}}}}}}}}}}}}}}}}}   ",
"  }}}}}}}}}}]|/%}}}}}}}}}}}}}(($[|}}}}}}}}}}}}}}}}}}}}}}}}}}   ",
"  }}}}}}}}}}]+1-}}}}}}}}}}}}}}}1.]}}}}}}}}}}}}}}}}}}}}}}}}}}}  ",
" }}}}}}}}}}}(1_!)}}}}}}}}}}}};*-,}}}}}}}}}}}}}}}}}}}}}}}}}}}}  ",
" }}}}}}}}}}}})-)|%}}}}}}}}}}}2|,]}}}}}}}}}}}}}}}}}}}}}}}}}}}}  ",
" }}}}}}}}}}}}}4-_!@}}}}}}}}}}@[$(}}}}}}}}}}}}}}}}}}}}}}}}}}}}  ",
" }}}}}}}}}}}}}}/-$!_]}}}2((%|.@(3}}}}}}}}}}}}}}}}}}}}}}}}}}}}  ",
" }}}}}}}}}}}}}}<4!||[{{{|^1!,1}(4_}}}}}}}}}}}}}}}}}}}}}}}}}}}  ",
" }}}}}}}}}}}}}}}<)+/|#@-++.^%2(}]+_}}}}}}}}}}}}}}}}}}}}}}}}}}  ",
" }}}}}}}}}}}}}}}}}}_4444-3(}}@^(}@+^(}}}}}}}}}}}}}}}}}}}}}}}}  ",
" }}}}}}}}}}}}}}}}}}}}}}}}}}}}([$_.|/_}}}}}}}}}}}}}}}}}}}}}}}}  ",
" }}}}}}}}}}}}}}}}}}}}}}}}}}}}}^[+/<3+$}}}}}}}}}}}}}}}}}}}}}}}  ",
" }}}}}}}}}}}}}}}}}}}}}}}}}}}}}%[$}(*$+^}}}}}}}}}}}}}}}}}}}}}}  ",
" }}}}}}}}}}}}}}}}}}}}}}}}}}}}}}{!2)_^{+}}}}}}}}}}}}}}}}}}}}}}  ",
" }}}}}}}}}}}}}}}}}}}}}}}}}}}}}}*/_{{[{|@}}}}}}}}}}}}}}}}}}}}}  ",
" }}}}}}}}}}}}}}}}}}}}}}}}}}}}}}};[)/#[{,|2}}}}}}}}}}}}}}}}}}}  ",
" }}}}}}}}}}}}}}}}}}}}}}}}}}}}}}}}|/{/_[-,]}}}}}}}}}}}}}}}}}}}  ",
"  }}}}}}}}}}}}}}}}}}}}}}}}}}}}}}}2-#+{)/^!}}}}}}}}}}}}}}}}}}}  ",
"  }}}}}}}}}}}}}}}}}}}}}}}}}}}}}}}}$+^[^/--4(}}}}}}}}}}}}}}}}   ",
"  }}}}}}}}}}}}}}}}}}}}}}}}}}}}}}}}}_/$[{4-|$(}}}}}}}}}}}}}}}   ",
"   }}}}}}}}}}}}}}}}}}}}}}}}}}}}}}}}}^{$43,,[]}}}}}}}}}}}}}}}   ",
"   }}}}}}}}}}}}}}}}}}}}}}}}}}}}}}}}}3[^/|%,@+3}}}}}}}}}}}}}    ",
"   }}}}}}}}}}}}}}}}}}}}}}}}}}}}}}}}}})[3/]|4@[]}}}}}}}}}}}}    ",
"    }}}}}}}}}}}}}}}}}}}}}}}}}}}}}}}}}}4|1,2-#1@(}}}}}}}}}}     ",
"    }}}}}}}}}}}}}}}}}}}}}}}}}}}}}}}}}}},1|4$+1[#}}}}}}}}}}     ",
"     }}}}}}}}}}}}}}}}}}}}}}}}}}}}}}}}}})/3[]$[1[_}}}}}}}}      ",
"      }}}}}}}}}}}}}}}}}}}}}}}}}}}}}}}}}2|{^[%^[^/<}}}}}}}      ",
"      }}}}}}}}}}}}}}}}}}}}}}}}}}}}}}}}}};4)@{(_/1{}}}}}}       ",
"       }}}}}}}}}}}}}}}}}}}}}}}}}}}}}}}}}}_/$[<(]-)}}}}}        ",
"        }}}}}}}}}}}}}}}}}}}}}}}}}}}}}}}}}}^^]3_/)(}}}}}        ",
"         }}}}}}}}}}}}}}}}}}}}}}}}}}}}}}}}}%/,/4]}}}}}}         ",
"          }}}}}}}}}}}}}}}}}}}}}}}}}}}}}}}}}2%2}}}}}}}          ",
"           }}}}}}}}}}}}}}}}}}}}}}}}}}}}}}}}}}}}}}}}}           ",
"            }}}}}}}}}}}}}}}}}}}}}}}}}}}}}}}}}}}}}}}            ",
"             }}}}}}}}}}}}}}}}}}}}}}}}}}}}}}}}}}}}              ",
"              }}}}}}}}}}}}}}}}}}}}}}}}}}}}}}}}}}               ",
"                }}}}}}}}}}}}}}}}}}}}}}}}}}}}}}                 ",
"                  }}}}}}}}}}}}}}}}}}}}}}}}}}                   ",
"                    }}}}}}}}}}}}}}}}}}}}}}                     ",
"                       }}}}}}}}}}}}}}}}                        ",
"                                                               ",
"                                                               "};
